<?xml version="1.0" encoding="utf-8"?>
<!-- Generator: Adobe Illustrator 19.2.1, SVG Export Plug-In . SVG Version: 6.00 Build 0)  -->
<svg version="1.1" id="Layer_1" xmlns="http://www.w3.org/2000/svg" xmlns:xlink="http://www.w3.org/1999/xlink" x="0px" y="0px"
	 viewBox="0 0 250 30" style="enable-background:new 0 0 250 30;" xml:space="preserve">
<style type="text/css">
	.st0{fill:#134D5B;}
	.st1{fill:#166572;}
	.st2{fill:#56B5B7;}
	.st3{fill:#FFFFFF;}
</style>
<g>
	<g>
		<g>
			<path class="st0" d="M23.6,13c0,0,3.6-5.3,9-7.3h-18C20,7.7,23.6,13,23.6,13z"/>
			<path class="st1" d="M17.1,14.8c-0.1,0.5-0.5,0.8-1,0.8c-0.6,0-1-0.5-1-1c0-0.6,0.5-1,1-1l0,0c-0.4-0.3-1-0.5-1.5-0.5
				c-1.5-0.1-2.7,1.1-2.7,2.6s1.2,2.7,2.7,2.7s2.7-1.2,2.7-2.7C17.3,15.3,17.2,15,17.1,14.8z"/>
			<g>
				<path class="st2" d="M41.1,8.9L41.1,8.9L41.1,8.9L41.1,8.9z"/>
				<path class="st2" d="M41.1,8.9c-0.9,0.6-1.6,1-1.5,0.7c0,0,1-1.3,2.2-2.3c0.9-1,1.9-2.3,2.2-3.4c0,0-3.1,0.2-4.9,1.3H40
					c0,0-0.3,0-0.9,0c0.3,0.3,0.5,0.5,0.5,0.5C39.5,6,39,5.8,38.3,5.4C34.7,6,31.5,7.9,29,9.7c-2.2,2.2-4.1,5.4-4.9,10.1
					c-0.2,0-0.3,0.1-0.5,0.1l0,0l0,0c-0.2,0-0.3-0.1-0.5-0.1c-0.9-4.9-2.9-8.2-5.3-10.4c-2.5-1.8-5.6-3.4-9-4.1
					C8.1,5.8,7.6,6,7.5,5.7c0,0,0.1-0.2,0.4-0.5c-0.6,0-0.9,0-0.9,0h1c0,0,0,0,0-0.1C6.2,4,3.6,3.9,3.6,3.9c0.4,1.3,2.1,2.8,3,3.8
					c1,0.9,1.7,1.9,1.7,1.9c0,0.4-0.7-0.1-1.6-0.7c0,0,0,1.9,0,4.5c0.1,4.1,0.4,10,1.4,12.3c5.5,0.7,25.9,0.9,31.5,0.1
					C41.4,22.1,41.1,9.5,41.1,8.9z M14.6,20c-2.5,0-4.5-2-4.5-4.5s2-4.5,4.5-4.5s4.5,2,4.5,4.5S17.1,20,14.6,20z M32.9,20
					c-2.5,0-4.5-2-4.5-4.5s2-4.5,4.5-4.5s4.5,2,4.5,4.5S35.4,20,32.9,20z"/>
			</g>
			<path class="st1" d="M35.5,14.8c-0.1,0.5-0.5,0.8-1,0.8c-0.6,0-1-0.5-1-1c0-0.6,0.5-1,1-1l0,0c-0.4-0.3-1-0.5-1.5-0.5
				c-1.5,0-2.7,1.2-2.7,2.7s1.2,2.7,2.7,2.7s2.7-1.2,2.7-2.7C35.6,15.3,35.6,15,35.5,14.8z"/>
		</g>
	</g>
	<g>
		<path class="st0" d="M63,14.4c0,0.2,0,0.4-0.1,0.7c-0.1,0.2-0.2,0.4-0.3,0.6c-0.1,0.2-0.3,0.3-0.5,0.5c-0.2,0.1-0.4,0.2-0.6,0.3
			l0.6,1.2l0.6,1.2c0,0.1,0.1,0.2,0.1,0.2c0,0.1,0,0.2,0,0.2c0,0.1-0.1,0.1-0.1,0.2c-0.1,0.1-0.1,0.1-0.2,0.1c0,0-0.1,0-0.1,0
			c0,0-0.1,0-0.1,0c-0.1,0-0.2,0-0.3-0.1c-0.1-0.1-0.2-0.1-0.2-0.3L60.9,18l-0.7-1.4h-0.5h-0.5v1.2v1.2c0,0.1,0,0.2,0,0.2
			c0,0.1-0.1,0.1-0.1,0.2c-0.1,0.1-0.1,0.1-0.2,0.1c-0.1,0-0.2,0-0.2,0c-0.1,0-0.2,0-0.2,0c-0.1,0-0.1-0.1-0.2-0.1
			C58,19.4,58,19.4,58,19.3s0-0.2,0-0.2v-3.1v-3.1c0-0.1,0-0.2,0-0.2c0-0.1,0.1-0.1,0.1-0.2c0.1-0.1,0.1-0.1,0.2-0.1
			c0.1,0,0.2,0,0.2,0h1.1h1.1c0.3,0,0.6,0.1,0.9,0.2c0.3,0.1,0.5,0.3,0.8,0.5c0.2,0.2,0.4,0.4,0.5,0.7C63,13.8,63,14.1,63,14.4z
			 M60.7,15.3c0.1,0,0.3,0,0.4-0.1c0.1,0,0.2-0.1,0.3-0.2c0.1-0.1,0.2-0.2,0.2-0.3c0.1-0.1,0.1-0.2,0.1-0.4c0-0.1,0-0.3-0.1-0.4
			c-0.1-0.1-0.1-0.2-0.2-0.3c-0.1-0.1-0.2-0.2-0.4-0.2c-0.1,0-0.3-0.1-0.4-0.1h-0.8h-0.8v0.9v0.9H60H60.7z"/>
		<path class="st0" d="M73.4,18.5c0.1,0,0.2,0,0.2,0s0.1,0.1,0.2,0.1c0.1,0.1,0.1,0.1,0.1,0.2c0,0.1,0,0.2,0,0.2c0,0.1,0,0.2,0,0.2
			s-0.1,0.1-0.1,0.2c-0.1,0.1-0.1,0.1-0.2,0.1s-0.2,0-0.2,0h-1.9h-1.9c-0.1,0-0.2,0-0.2,0s-0.1-0.1-0.2-0.1
			c-0.1-0.1-0.1-0.1-0.1-0.2s0-0.2,0-0.2V16v-3.1c0-0.1,0-0.2,0-0.2c0-0.1,0.1-0.1,0.1-0.2c0.1-0.1,0.1-0.1,0.2-0.1s0.2,0,0.2,0h0h0
			l1.9,0l1.9,0c0.1,0,0.2,0,0.2,0c0.1,0,0.1,0.1,0.2,0.1c0.1,0.1,0.1,0.1,0.1,0.2c0,0.1,0,0.2,0,0.2c0,0.1,0,0.2,0,0.2
			s-0.1,0.1-0.1,0.2c-0.1,0.1-0.1,0.1-0.2,0.1s-0.2,0-0.2,0h0h0l-1.6,0l-1.6,0v0.9v0.9h1.1h1.1c0.1,0,0.2,0,0.2,0
			c0.1,0,0.1,0.1,0.2,0.1c0.1,0.1,0.1,0.1,0.1,0.2c0,0.1,0,0.2,0,0.2c0,0.1,0,0.2,0,0.2c0,0.1-0.1,0.1-0.1,0.2
			c-0.1,0.1-0.1,0.1-0.2,0.1c-0.1,0-0.2,0-0.2,0h-1.1h-1.1v0.9v0.9h1.6H73.4z"/>
		<path class="st0" d="M83.1,19.7c-0.5,0-1-0.1-1.4-0.3c-0.4-0.2-0.8-0.5-1.2-0.8c-0.4-0.4-0.6-0.8-0.8-1.2
			c-0.2-0.4-0.3-0.9-0.3-1.4c0-0.5,0.1-1,0.3-1.4c0.2-0.4,0.5-0.8,0.8-1.2c0.4-0.4,0.8-0.6,1.2-0.8c0.4-0.2,0.9-0.3,1.4-0.3
			c0.4,0,0.8,0.1,1.2,0.2c0.4,0.1,0.7,0.3,1.1,0.6c0.1,0.1,0.1,0.1,0.2,0.2c0,0.1,0.1,0.1,0.1,0.2c0,0.1,0,0.2,0,0.2
			c0,0.1-0.1,0.1-0.1,0.2c-0.1,0.1-0.1,0.1-0.2,0.2c-0.1,0-0.1,0.1-0.2,0.1c-0.1,0-0.2,0-0.2,0c-0.1,0-0.1-0.1-0.2-0.1
			c-0.2-0.2-0.5-0.3-0.7-0.4c-0.3-0.1-0.5-0.1-0.8-0.1c-0.3,0-0.7,0.1-1,0.2c-0.3,0.1-0.6,0.3-0.8,0.5c-0.2,0.2-0.4,0.5-0.5,0.8
			c-0.1,0.3-0.2,0.6-0.2,1c0,0.3,0.1,0.7,0.2,1c0.1,0.3,0.3,0.6,0.5,0.8c0.2,0.2,0.5,0.4,0.8,0.5c0.3,0.1,0.6,0.2,1,0.2
			c0.3,0,0.6-0.1,0.9-0.2c0.3-0.1,0.5-0.3,0.8-0.5c0.1-0.1,0.1-0.1,0.2-0.1c0.1,0,0.2,0,0.2,0c0.1,0,0.2,0,0.2,0.1s0.1,0.1,0.2,0.1
			c0.1,0.1,0.1,0.1,0.1,0.2c0,0.1,0,0.2,0,0.2c0,0.1,0,0.2-0.1,0.2c0,0.1-0.1,0.1-0.1,0.2c-0.4,0.3-0.7,0.6-1.2,0.7
			C84.1,19.6,83.6,19.7,83.1,19.7z"/>
		<path class="st0" d="M95.1,19.7c-0.5,0-1-0.1-1.4-0.3s-0.8-0.5-1.2-0.8c-0.4-0.4-0.6-0.8-0.8-1.2s-0.3-0.9-0.3-1.4
			c0-0.5,0.1-1,0.3-1.4c0.2-0.4,0.5-0.8,0.8-1.2c0.4-0.4,0.8-0.6,1.2-0.8c0.4-0.2,0.9-0.3,1.4-0.3c0.5,0,1,0.1,1.4,0.3
			c0.4,0.2,0.8,0.5,1.2,0.8c0.4,0.4,0.6,0.8,0.8,1.2c0.2,0.4,0.3,0.9,0.3,1.4c0,0.5-0.1,1-0.3,1.4s-0.5,0.8-0.8,1.2
			c-0.4,0.4-0.8,0.6-1.2,0.8C96.1,19.6,95.7,19.7,95.1,19.7z M95.1,13.5c-0.3,0-0.7,0.1-1,0.2c-0.3,0.1-0.6,0.3-0.8,0.6
			c-0.2,0.2-0.4,0.5-0.6,0.8c-0.1,0.3-0.2,0.6-0.2,1c0,0.3,0.1,0.7,0.2,1c0.1,0.3,0.3,0.6,0.6,0.8c0.2,0.2,0.5,0.4,0.8,0.6
			c0.3,0.1,0.6,0.2,1,0.2s0.7-0.1,1-0.2c0.3-0.1,0.6-0.3,0.8-0.6c0.2-0.2,0.4-0.5,0.6-0.8c0.1-0.3,0.2-0.6,0.2-1
			c0-0.3-0.1-0.7-0.2-1c-0.1-0.3-0.3-0.6-0.6-0.8c-0.2-0.2-0.5-0.4-0.8-0.6C95.8,13.5,95.5,13.5,95.1,13.5z"/>
		<path class="st0" d="M110,19.5L110,19.5L110,19.5L110,19.5L110,19.5l-1.9-2.4l-1.9-2.4v2.2v2.2c0,0.1,0,0.2,0,0.2
			s-0.1,0.1-0.1,0.2c-0.1,0.1-0.1,0.1-0.2,0.1c-0.1,0-0.2,0-0.2,0s-0.2,0-0.2,0c-0.1,0-0.1-0.1-0.2-0.1c-0.1-0.1-0.1-0.1-0.1-0.2
			c0-0.1,0-0.2,0-0.2V16v-3.1c0-0.1,0-0.1,0-0.2c0-0.1,0-0.1,0.1-0.2c0-0.1,0.1-0.1,0.1-0.1c0.1,0,0.1-0.1,0.2-0.1
			c0.1,0,0.1,0,0.2,0c0.1,0,0.1,0,0.2,0c0.1,0,0.1,0,0.2,0.1s0.1,0.1,0.1,0.1l1.9,2.4l1.9,2.4v-2.2v-2.2c0-0.1,0-0.2,0-0.2
			c0-0.1,0.1-0.1,0.1-0.2c0.1-0.1,0.1-0.1,0.2-0.1c0.1,0,0.2,0,0.2,0s0.2,0,0.2,0s0.1,0.1,0.2,0.1c0.1,0.1,0.1,0.1,0.1,0.2
			c0,0.1,0,0.2,0,0.2V16v3.1c0,0,0,0,0,0c0,0,0,0,0,0c0,0,0,0,0,0s0,0,0,0c0,0,0,0,0,0c0,0,0,0,0,0c0,0,0,0,0,0c0,0,0,0,0,0l0,0l0,0
			c0,0,0,0,0,0c0,0,0,0,0,0c0,0,0,0,0,0s0,0,0,0c0,0,0,0,0,0c0,0,0,0,0,0l0,0l0,0l0,0l0,0c0,0,0,0,0,0c0,0,0,0,0,0l0,0l0,0
			c0,0,0,0,0,0c0,0,0,0,0,0l0,0l0,0c0,0,0,0,0,0c0,0,0,0,0,0c0,0,0,0,0,0c0,0,0,0,0,0c0,0,0,0,0,0c0,0,0,0,0,0c0,0,0,0,0,0
			c0,0,0,0,0,0c0,0,0,0,0,0s0,0,0,0l0,0l0,0c0,0,0,0,0,0c0,0,0,0,0,0h0h0c0,0,0,0,0,0c0,0,0,0,0,0c0,0,0,0,0,0c0,0,0,0,0,0
			c0,0,0,0,0,0s0,0,0,0l0,0l0,0c0,0,0,0,0,0c0,0,0,0,0,0c0,0,0,0,0,0s0,0,0,0c0,0,0,0,0,0s0,0,0,0c0,0,0,0,0,0c0,0,0,0,0,0
			c0,0,0,0,0,0c0,0,0,0,0,0c0,0,0,0,0,0c0,0,0,0,0,0c0,0,0,0,0,0c0,0,0,0,0,0c0,0,0,0,0,0c0,0,0,0,0,0c0,0,0,0,0,0c0,0,0,0,0,0
			c0,0,0,0,0,0c0,0,0,0,0,0c0,0,0,0,0,0s0,0,0,0c0,0,0,0,0,0c0,0,0,0,0,0c0,0,0,0,0,0C110.1,19.6,110.1,19.6,110,19.5
			C110.1,19.6,110.1,19.6,110,19.5C110.1,19.5,110.1,19.5,110,19.5L110,19.5L110,19.5L110,19.5L110,19.5C110,19.5,110,19.5,110,19.5
			C110,19.5,110,19.5,110,19.5C110,19.5,110,19.5,110,19.5C110,19.5,110,19.5,110,19.5z"/>
		<path class="st0" d="M122,12.2c0.1,0,0.2,0,0.2,0c0.1,0,0.1,0.1,0.2,0.1c0.1,0.1,0.1,0.1,0.1,0.2c0,0.1,0,0.2,0,0.2
			c0,0.1,0,0.2,0,0.2s-0.1,0.1-0.1,0.2c-0.1,0.1-0.1,0.1-0.2,0.1c-0.1,0-0.2,0-0.2,0h0h0l-1.6,0l-1.6,0v0.9v0.9h1.1h1.1
			c0.1,0,0.2,0,0.2,0c0.1,0,0.1,0.1,0.2,0.1c0.1,0.1,0.1,0.1,0.1,0.2c0,0.1,0,0.2,0,0.2c0,0.1,0,0.2,0,0.2c0,0.1-0.1,0.1-0.1,0.2
			c-0.1,0.1-0.1,0.1-0.2,0.1c-0.1,0-0.2,0-0.2,0H120h-1.1v1.3v1.3c0,0.1,0,0.2,0,0.2c0,0.1-0.1,0.1-0.1,0.2
			c-0.1,0.1-0.1,0.1-0.2,0.1c-0.1,0-0.2,0-0.2,0s-0.2,0-0.2,0c-0.1,0-0.1-0.1-0.2-0.1c-0.1-0.1-0.1-0.1-0.1-0.2c0-0.1,0-0.2,0-0.2
			V16v-3.1c0-0.1,0-0.2,0-0.2c0-0.1,0.1-0.1,0.1-0.2c0.1-0.1,0.1-0.1,0.2-0.1c0.1,0,0.2,0,0.2,0h0h0l1.9,0L122,12.2z"/>
		<path class="st0" d="M128.9,19.7c-0.1,0-0.2,0-0.2,0c-0.1,0-0.1-0.1-0.2-0.1c-0.1-0.1-0.1-0.1-0.1-0.2c0-0.1,0-0.2,0-0.2V16v-3.1
			c0-0.1,0-0.2,0-0.2c0-0.1,0.1-0.1,0.1-0.2c0.1-0.1,0.1-0.1,0.2-0.1c0.1,0,0.2,0,0.2,0c0.1,0,0.2,0,0.2,0c0.1,0,0.1,0.1,0.2,0.1
			c0.1,0.1,0.1,0.1,0.1,0.2c0,0.1,0,0.2,0,0.2V16v3.1c0,0.1,0,0.2,0,0.2s-0.1,0.1-0.1,0.2c-0.1,0.1-0.1,0.1-0.2,0.1
			C129,19.7,129,19.7,128.9,19.7z"/>
		<path class="st0" d="M141.1,14.4c0,0.2,0,0.4-0.1,0.7s-0.2,0.4-0.3,0.6c-0.1,0.2-0.3,0.3-0.5,0.5c-0.2,0.1-0.4,0.2-0.6,0.3
			l0.6,1.2l0.6,1.2c0,0.1,0.1,0.2,0.1,0.2c0,0.1,0,0.2,0,0.2c0,0.1-0.1,0.1-0.1,0.2c-0.1,0.1-0.1,0.1-0.2,0.1c0,0-0.1,0-0.1,0
			c0,0-0.1,0-0.1,0c-0.1,0-0.2,0-0.3-0.1c-0.1-0.1-0.2-0.1-0.2-0.3L139,18l-0.7-1.4h-0.5h-0.5v1.2v1.2c0,0.1,0,0.2,0,0.2
			c0,0.1-0.1,0.1-0.1,0.2c-0.1,0.1-0.1,0.1-0.2,0.1s-0.2,0-0.2,0c-0.1,0-0.2,0-0.2,0c-0.1,0-0.1-0.1-0.2-0.1
			c-0.1-0.1-0.1-0.1-0.1-0.2c0-0.1,0-0.2,0-0.2v-3.1v-3.1c0-0.1,0-0.2,0-0.2c0-0.1,0.1-0.1,0.1-0.2c0.1-0.1,0.1-0.1,0.2-0.1
			c0.1,0,0.2,0,0.2,0h1.1h1.1c0.3,0,0.6,0.1,0.9,0.2c0.3,0.1,0.5,0.3,0.8,0.5c0.2,0.2,0.4,0.4,0.5,0.7
			C141.1,13.8,141.1,14.1,141.1,14.4z M138.8,15.3c0.1,0,0.3,0,0.4-0.1s0.2-0.1,0.3-0.2c0.1-0.1,0.2-0.2,0.2-0.3
			c0.1-0.1,0.1-0.2,0.1-0.4c0-0.1,0-0.3-0.1-0.4c-0.1-0.1-0.1-0.2-0.2-0.3c-0.1-0.1-0.2-0.2-0.4-0.2c-0.1,0-0.3-0.1-0.4-0.1H138
			h-0.8v0.9v0.9h0.8H138.8z"/>
		<path class="st0" d="M154.1,12.3c0.1,0,0.1,0,0.2,0.1c0.1,0,0.1,0.1,0.1,0.1c0,0.1,0.1,0.1,0.1,0.2s0,0.1,0,0.2V16v3.1
			c0,0.1,0,0.2,0,0.2s-0.1,0.1-0.1,0.2c-0.1,0.1-0.1,0.1-0.2,0.1c-0.1,0-0.2,0-0.2,0s-0.2,0-0.2,0c-0.1,0-0.1-0.1-0.2-0.1
			c-0.1-0.1-0.1-0.1-0.1-0.2c0-0.1,0-0.2,0-0.2v-2v-2l-1,1.6l-1,1.6v0v0l0,0l0,0l0,0l0,0l0,0l0,0c0,0,0,0,0,0s0,0,0,0l0,0l0,0
			c0,0,0,0,0,0s0,0,0,0c0,0,0,0,0,0s0,0,0,0c0,0,0,0,0,0s0,0,0,0c0,0,0,0,0,0s0,0,0,0l0,0l0,0c0,0,0,0,0,0c0,0,0,0,0,0c0,0,0,0,0,0
			c0,0,0,0,0,0l0,0l0,0h0h0c0,0,0,0,0,0s0,0,0,0c0,0,0,0,0,0c0,0,0,0,0,0s0,0,0,0c0,0,0,0,0,0c0,0-0.1,0-0.1,0c0,0-0.1,0-0.1,0h0h0
			c0,0,0,0,0,0s0,0,0,0c0,0,0,0-0.1,0s0,0-0.1,0c0,0,0,0,0,0c0,0,0,0,0,0c0,0,0,0,0,0c0,0,0,0,0,0c0,0,0,0,0,0c0,0,0,0,0,0
			c0,0,0,0,0,0c0,0,0,0,0,0c0,0,0,0,0,0s0,0,0,0h0h0l0,0l0,0l0,0l0,0c0,0,0,0,0,0c0,0,0,0,0,0c0,0,0,0,0,0s0,0,0,0c0,0,0,0,0,0
			s0,0,0,0c0,0,0,0,0,0s0,0,0,0c0,0,0,0,0,0s0,0,0,0c0,0,0,0,0,0c0,0,0,0,0,0c0,0,0,0,0,0s0,0,0,0c0,0,0,0,0,0c0,0,0,0,0,0l0,0l0,0
			c0,0,0,0,0,0c0,0,0,0,0,0v0v0c0,0,0,0,0,0c0,0,0,0,0,0l-1-1.6l-1-1.6v2v2c0,0.1,0,0.2,0,0.2c0,0.1-0.1,0.1-0.1,0.2
			c-0.1,0.1-0.1,0.1-0.2,0.1c-0.1,0-0.2,0-0.2,0s-0.2,0-0.2,0s-0.1-0.1-0.2-0.1c-0.1-0.1-0.1-0.1-0.1-0.2c0-0.1,0-0.2,0-0.2V16v-3.1
			c0-0.1,0-0.1,0-0.2c0-0.1,0.1-0.1,0.1-0.2c0-0.1,0.1-0.1,0.1-0.1c0.1,0,0.1-0.1,0.2-0.1c0.1,0,0.1,0,0.2,0c0.1,0,0.1,0,0.2,0
			c0.1,0,0.1,0.1,0.2,0.1c0.1,0,0.1,0.1,0.1,0.2l1.3,2.1l1.3,2.1l1.3-2.1l1.3-2.1c0-0.1,0.1-0.1,0.1-0.2c0,0,0.1-0.1,0.2-0.1
			c0.1,0,0.1,0,0.1-0.1c0,0,0,0,0,0s0,0,0.1,0C154,12.2,154.1,12.2,154.1,12.3z"/>
		<path class="st0" d="M161.9,15.4c0.1,0,0.2,0,0.2,0c0.1,0,0.1,0.1,0.2,0.1c0.1,0.1,0.1,0.1,0.1,0.2s0,0.2,0,0.2c0,0.1,0,0.2,0,0.2
			s-0.1,0.1-0.1,0.2c-0.1,0.1-0.1,0.1-0.2,0.1c-0.1,0-0.2,0-0.2,0c-0.1,0-0.2,0-0.2,0c-0.1,0-0.1-0.1-0.2-0.1
			c-0.1-0.1-0.1-0.1-0.1-0.2c0-0.1,0-0.2,0-0.2c0-0.1,0-0.2,0-0.2c0-0.1,0.1-0.1,0.1-0.2c0.1-0.1,0.1-0.1,0.2-0.1
			C161.8,15.4,161.9,15.4,161.9,15.4z"/>
		<path class="st0" d="M169.8,19.7c-0.1,0-0.2,0-0.2,0c-0.1,0-0.1-0.1-0.2-0.1c-0.1-0.1-0.1-0.1-0.1-0.2s0-0.2,0-0.2V16v-3.1
			c0-0.1,0-0.2,0-0.2c0-0.1,0.1-0.1,0.1-0.2c0.1-0.1,0.1-0.1,0.2-0.1c0.1,0,0.2,0,0.2,0c0.1,0,0.2,0,0.2,0c0.1,0,0.1,0.1,0.2,0.1
			c0.1,0.1,0.1,0.1,0.1,0.2c0,0.1,0,0.2,0,0.2V16v3.1c0,0.1,0,0.2,0,0.2s-0.1,0.1-0.1,0.2c-0.1,0.1-0.1,0.1-0.2,0.1
			C170,19.7,169.9,19.7,169.8,19.7z"/>
		<path class="st0" d="M178.4,13.5h-0.8h-0.8c-0.1,0-0.2,0-0.2,0c-0.1,0-0.1-0.1-0.2-0.1c-0.1-0.1-0.1-0.1-0.1-0.2s0-0.2,0-0.2
			c0-0.1,0-0.2,0-0.2c0-0.1,0.1-0.1,0.1-0.2c0.1-0.1,0.1-0.1,0.2-0.1c0.1,0,0.2,0,0.2,0h2.2h2.2c0.1,0,0.2,0,0.2,0s0.1,0.1,0.2,0.1
			c0.1,0.1,0.1,0.1,0.1,0.2c0,0.1,0,0.2,0,0.2c0,0.1,0,0.2,0,0.2s-0.1,0.1-0.1,0.2c-0.1,0.1-0.1,0.1-0.2,0.1s-0.2,0-0.2,0h-0.8h-0.8
			v2.8v2.8c0,0.1,0,0.2,0,0.2c0,0.1-0.1,0.1-0.1,0.2c-0.1,0.1-0.1,0.1-0.2,0.1c-0.1,0-0.2,0-0.2,0c-0.1,0-0.2,0-0.2,0
			c-0.1,0-0.1-0.1-0.2-0.1c-0.1-0.1-0.1-0.1-0.1-0.2c0-0.1,0-0.2,0-0.2v-2.8V13.5z"/>
	</g>
</g>
<g>
	<path class="st1" d="M241.3,26.3H220h-21.3c-0.8,0-1.6-0.3-2.1-0.9c-0.5-0.5-0.9-1.3-0.9-2.1v-8.6V6.2c0-0.8,0.3-1.6,0.9-2.1
		c0.5-0.5,1.3-0.9,2.1-0.9H220h21.3c0.8,0,1.6,0.3,2.1,0.9c0.5,0.5,0.9,1.3,0.9,2.1v8.6v8.6c0,0.8-0.3,1.6-0.9,2.1
		C242.9,26,242.1,26.3,241.3,26.3z"/>
	<g>
		<path class="st3" d="M200.1,7.2h2.7v5.2c0.8-1,1.9-1.6,3.1-1.6c2.6,0,4.5,2,4.5,5.3c0,3.4-1.9,5.3-4.5,5.3c-1.2,0-2.3-0.5-3.1-1.6
			v1.3h-2.7V7.2z M205.1,19.1c1.6,0,2.6-1.2,2.6-2.9s-1-3-2.6-3c-0.9,0-1.8,0.5-2.3,1.2v3.6C203.3,18.6,204.2,19.1,205.1,19.1z"/>
		<path class="st3" d="M217,10.8c3,0,5.1,2.3,5.1,5.6V17h-7.5c0.2,1.3,1.2,2.4,2.9,2.4c0.9,0,2.1-0.4,2.7-1l1.2,1.7
			c-1,0.9-2.6,1.4-4.2,1.4c-3.1,0-5.4-2.1-5.4-5.3C211.8,13.2,214,10.8,217,10.8z M214.5,15.2h5c-0.1-1-0.7-2.2-2.5-2.2
			C215.4,12.9,214.7,14.1,214.5,15.2z"/>
		<path class="st3" d="M224.6,18.7v-5.3h-1.7V11h1.7V8.3h2.7V11h2.1v2.3h-2.1V18c0,0.6,0.3,1.1,0.9,1.1c0.4,0,0.8-0.1,0.9-0.3l0.6,2
			c-0.4,0.4-1.1,0.7-2.2,0.7C225.6,21.4,224.6,20.5,224.6,18.7z"/>
		<path class="st3" d="M237.3,20.1c-0.7,0.8-1.9,1.3-3.2,1.3c-1.6,0-3.5-1.1-3.5-3.4c0-2.4,1.9-3.2,3.5-3.2c1.3,0,2.5,0.4,3.2,1.2
			v-1.4c0-1-0.9-1.7-2.2-1.7c-1.1,0-2.1,0.4-3,1.2l-1-1.8c1.2-1.1,2.8-1.6,4.4-1.6c2.3,0,4.4,0.9,4.4,3.8v6.6h-2.7V20.1z
			 M237.3,17.5c-0.4-0.6-1.3-0.9-2.1-0.9c-1.1,0-1.9,0.5-1.9,1.5c0,0.9,0.9,1.5,1.9,1.5c0.9,0,1.7-0.3,2.1-0.9V17.5z"/>
	</g>
</g>
</svg>
