<?xml version="1.0" encoding="utf-8"?>
<!-- Generator: Adobe Illustrator 19.2.1, SVG Export Plug-In . SVG Version: 6.00 Build 0)  -->
<svg version="1.1" id="Layer_1" xmlns="http://www.w3.org/2000/svg" xmlns:xlink="http://www.w3.org/1999/xlink" x="0px" y="0px"
	 viewBox="0 0 350 150" style="enable-background:new 0 0 350 150;" xml:space="preserve">
<style type="text/css">
	.st0{fill:#134D5B;}
	.st1{fill:#166572;}
	.st2{fill:#56B5B7;}
	.st3{fill:#FFFFFF;}
</style>
<g>
	<g>
		<path class="st0" d="M100,71.7c0,0,17-22.1,42-34.1H57.9C83,49.6,100,71.7,100,71.7z"/>
		<path class="st1" d="M69.7,79c-0.5,2.1-2.4,3.7-4.7,3.7c-2.7,0-4.9-2.2-4.9-4.9c0-2.7,2.2-4.9,4.9-4.9c0,0,0,0,0.1,0
			c-2-1.4-4.5-2.2-7.1-2.2c-6.9,0-12.5,5.6-12.5,12.5S51.1,95.7,58,95.7s12.5-5.6,12.5-12.5C70.5,81.8,70.2,80.3,69.7,79z"/>
		<g>
			<path class="st2" d="M182,51.6C182,51.5,182,51.5,182,51.6C182,51.5,182,51.5,182,51.6L182,51.6z"/>
			<path class="st2" d="M181.9,51.6c-4.2,2.9-7.3,4.8-7.2,3.2c0,0,4.9-5.9,10.5-10.9c4.3-4.6,8.7-10.5,10.4-15.8
				c0,0-14.3,0.8-22.8,6.3l1.9,2.4c-0.3,1.3-2.7,0.3-5.9-1.4c-16.8,3-31.9,11.5-43.6,20.2c-10.2,10.1-19,25.4-23.1,47.5
				c-0.7,0-1.5,0.4-2.2,0.4c-0.1,0-0.2,0-0.2,0c-0.1,0-0.2,0-0.2,0c-0.7,0-1.5-0.4-2.2-0.4C93,80,83.5,64.5,72.7,54.4
				c-11.5-8.3-26-16.1-42-19c-3.1,1.7-5.5,2.7-5.8,1.3l2.1-2.4c0.1-0.1,0.1-0.2,0.2-0.2c-8.5-5.2-21-6-21-6c2,6.1,10.3,13.2,14.2,18
				c4.6,4.4,8.1,8.7,8.1,8.7c0.1,1.7-3.1-0.3-7.4-3.3c0,0,0,9,0,20.9c0.3,19.4,1.7,46.8,6.5,57.6c25.9,3.4,121.3,4.1,147.6,0.3
				C183.1,113.6,182,54.4,181.9,51.6z M58.1,103.8c-11.6,0-21-9.4-21-21s9.4-21,21-21s21,9.4,21,21S69.7,103.8,58.1,103.8z
				 M143.7,103.5c-11.6,0-21-9.4-21-21s9.4-21,21-21s21,9.4,21,21S155.3,103.5,143.7,103.5z"/>
		</g>
		<path class="st1" d="M155.5,79c-0.5,2.1-2.4,3.7-4.7,3.7c-2.7,0-4.9-2.2-4.9-4.9c0-2.7,2.2-4.9,4.9-4.9c0,0,0,0,0.1,0
			c-2-1.4-4.5-2.2-7.1-2.2c-6.9,0-12.5,5.6-12.5,12.5s5.6,12.5,12.5,12.5s12.5-5.6,12.5-12.5C156.2,81.8,156,80.3,155.5,79z"/>
	</g>
</g>
<g>
	<path class="st1" d="M331.5,130.5h-66h-66c-2.5,0-4.8-1-6.5-2.7c-1.7-1.7-2.7-4-2.7-6.5V94.7V68.1c0-2.5,1-4.8,2.7-6.5
		c1.7-1.7,4-2.7,6.5-2.7h66h66c2.5,0,4.8,1,6.5,2.7c1.7,1.7,2.7,4,2.7,6.5v26.6v26.6c0,2.5-1,4.8-2.7,6.5
		C336.3,129.5,334,130.5,331.5,130.5z"/>
	<g>
		<path class="st3" d="M203.8,71.1h8.3v16c2.5-3.2,6-4.8,9.7-4.8c8,0,13.9,6.3,13.9,16.6c0,10.5-6,16.5-13.9,16.5
			c-3.8,0-7.2-1.7-9.7-4.8v4h-8.3V71.1z M219.1,108c4.8,0,8-3.6,8-9.1s-3.2-9.2-8-9.2c-2.7,0-5.7,1.6-7.1,3.7v11.1
			C213.4,106.5,216.5,108,219.1,108z"/>
		<path class="st3" d="M256.2,82.3c9.4,0,15.8,7,15.8,17.3v1.8h-23.4c0.5,4,3.7,7.3,9.1,7.3c2.9,0,6.4-1.2,8.4-3.1l3.7,5.3
			c-3.1,2.9-8.1,4.4-13,4.4c-9.6,0-16.8-6.5-16.8-16.6C239.9,89.7,246.7,82.3,256.2,82.3z M248.5,95.9H264c-0.2-3-2.3-7-7.8-7
			C251.1,88.9,248.9,92.7,248.5,95.9z"/>
		<path class="st3" d="M279.6,106.7V90.3h-5.2v-7.2h5.2v-8.6h8.3v8.6h6.4v7.2H288v14.2c0,2,1,3.5,2.9,3.5c1.2,0,2.4-0.5,2.9-0.9
			l1.8,6.3c-1.2,1.1-3.5,2-6.9,2C282.8,115.3,279.6,112.3,279.6,106.7z"/>
		<path class="st3" d="M318.9,111.3c-2.2,2.5-5.9,4-10,4c-5,0-10.9-3.4-10.9-10.4c0-7.4,5.9-10,10.9-10c4.2,0,7.9,1.3,10,3.8v-4.4
			c0-3.2-2.7-5.3-6.9-5.3c-3.4,0-6.5,1.2-9.2,3.7l-3.1-5.5c3.8-3.4,8.8-5,13.8-5c7.2,0,13.8,2.9,13.8,11.9v20.3h-8.3V111.3z
			 M318.9,103.1c-1.4-1.8-4-2.7-6.6-2.7c-3.3,0-5.9,1.7-5.9,4.8c0,2.9,2.7,4.6,5.9,4.6c2.7,0,5.3-0.9,6.6-2.7V103.1z"/>
	</g>
</g>
</svg>
